# xmcd
#
# Track frame offsets:
# 150
# 25125
# 37875
# 55125
# 81075
# 91725
# 105225
# 119497
# 133125
# 146175
# 159375
# 180300
# 195975
# 209272
# 222922
# 241125
#
# Disc length: 3390 seconds
#
#
# Revision: 2
# Processed by: cddbd v1.5.1PL0 Copyright (c) Steve Scherf et al.
# Submitted via: FreeRIP 2.931 
#
DISCID=ce0d3c10
DTITLE=Various Artist - The Ladies of Jazz and Blues - CD2
DYEAR=1900
DGENRE=Jazz
TTITLE0=Big Time Sarah - Blues All Alone
TTITLE1=Adrienne Morgan Hammond - Don´t Get Around Much Anymore
TTITLE2=Katie Webster - I Can´t Give You Anything But Love
TTITLE3=The Chicago All Stars - Make Me A Pallet On The Floor
TTITLE4=Sarah Vaughn - Have You Meet Miss Jones
TTITLE5=Bessie Smith - Blue Spirit Blues
TTITLE6=Cat and The Gators - Every Night When The Sun Goes In
TTITLE7=Ella Fitzgerald - Sugar Blues
TTITLE8=Dinah Washington - Beggin´ Mama Blues
TTITLE9=Alberta Hunter - Second Hand Man
TTITLE10=Nina Simone - Blue Prelude
TTITLE11=Bessie Smith - Careless Love Blues
TTITLE12=Billie Holiday - God Bless The Child
TTITLE13=Maxine Sullivan - Blue Skies
TTITLE14=Sarah Vaughn - Lullaby Of Birdland
TTITLE15=The Boswell Sisters - Cheek To Cheek
EXTD=
EXTT0=
EXTT1=
EXTT2=
EXTT3=
EXTT4=
EXTT5=
EXTT6=
EXTT7=
EXTT8=
EXTT9=
EXTT10=
EXTT11=
EXTT12=
EXTT13=
EXTT14=
EXTT15=
PLAYORDER=
